# xmcd
#
# Track frame offsets:
#	150
#	13451
#	24865
#	37265
#	48745
#	59783
#	71141
#	83906
#	94892
#	106337
#	120739
#	133462
#	144512
#	156744
#	169159
#	180727
#	189674
#	202019
#	214503
#	227281
#	241915
#	254380
#	267512
#	281872
#	296006
#	309633
#	323169
#	335146
#
# Disc length: 4630 seconds
#
# Revision: 1
# Processed by: cddbd v1.5.2PL0 Copyright (c) Steve Scherf et al.
# Submitted via: EZCDAudioConverter 3.1.0.1
#
DISCID=c912141c
DTITLE=Chicago Is Just That Way [1949-1951]cdD
DYEAR=194
DGENRE=Blues
TTITLE0=Jazz Gillum - Look What You Are Today
TTITLE1=Jazz Gillum - A Lie Is Dangerous
TTITLE2=Crudup, Big Boy - Hand Me Down My Walking Cane
TTITLE3=Big Maceo Merriweather - Big City Blues
TTITLE4=Big Maceo Merriweather - Do You Remember
TTITLE5=Big Maceo Merriweather - Just Tell Me Baby
TTITLE6=Big Maceo Merriweather - One Sunday Morning
TTITLE7=Jimmy Rogers - That's All Right
TTITLE8=Jimmy Rogers - I'm in Love
TTITLE9=Willie Mabon - Boogie Man
TTITLE10=Willie Mabon - It Keeps Rainin'
TTITLE11=Snooky Pryor - Boogy Fool
TTITLE12=Snooky Pryor - Raisin' Sand
TTITLE13=Memphis Minnie - Why Did I Make You Cry
TTITLE14=Memphis Minnie - Kid Man Blues
TTITLE15=Jimmy Rogers - Ludella
TTITLE16=Leroy Foster - Boll Weevil
TTITLE17=Leroy Foster - Red Headed Woman
TTITLE18=Leroy Foster - Rollin' and Tumblin', Pt. 1
TTITLE19=Leroy Foster - Rollin' and Tumblin', Pt. 2
TTITLE20=Little Walter - Bad Acting Woman
TTITLE21=Little Walter - Just Keep Loving Her
TTITLE22=Tony Hollins - Wine-O-Woman
TTITLE23=Tony Hollins - Crawlin' King Snake
TTITLE24=Big Bill Broonzy - Leavin' Day
TTITLE25=Big Bill Broonzy - Southbound Train
TTITLE26=Robert Lockwood, Jr. - I'm Gonna Dig Myself a Hole
TTITLE27=Robert Lockwood, Jr. - Dust My Broom
EXTD=
EXTT0=
EXTT1=
EXTT2=
EXTT3=
EXTT4=
EXTT5=
EXTT6=
EXTT7=
EXTT8=
EXTT9=
EXTT10=
EXTT11=
EXTT12=
EXTT13=
EXTT14=
EXTT15=
EXTT16=
EXTT17=
EXTT18=
EXTT19=
EXTT20=
EXTT21=
EXTT22=
EXTT23=
EXTT24=
EXTT25=
EXTT26=
EXTT27=
PLAYORDER=
